<svg xmlns="http://www.w3.org/2000/svg" width="22" height="25" fill="none" viewBox="0 0 22 25">
  <path fill="#fff" d="M6.5.5C7.33.5 8 1.17 8 2v1.5h6V2c0-.83.67-1.5 1.5-1.5S17 1.17 17 2v1.5h2.25a2.25 2.25 0 0 1 2.25 2.25V8H.5V5.75A2.25 2.25 0 0 1 2.75 3.5H5V2C5 1.17 5.67.5 6.5.5Zm-6 9h21v12.75a2.25 2.25 0 0 1-2.25 2.25H2.75A2.25 2.25 0 0 1 .5 22.25V9.5Zm15.422 5.297a1.125 1.125 0 0 0-1.59-1.59L9.88 17.662l-2.203-2.203a1.125 1.125 0 0 0-1.59 1.59l3 2.999c.441.44 1.154.44 1.59 0l5.245-5.25Z"/>
</svg>
